<svg xmlns="http://www.w3.org/2000/svg" xmlns:xlink="http://www.w3.org/1999/xlink" fill="none" version="1.1" width="24.000000000000004" height="24.000000000000004" viewBox="0 0 24.000000000000004 24.000000000000004"><defs><clipPath id="master_svg0_2191_54105"><rect x="0" y="3.552713678800501e-15" width="24" height="24" rx="0"/></clipPath></defs><g transform="matrix(1,-1.6081230200044232e-16,1.6081230200044232e-16,1,-5.713200650363686e-31,0)" clip-path="url(#master_svg0_2191_54105)"><g transform="matrix(0,1,-1,0,23.99987840652466,-20.00012159347534)"><path d="M32,1.9998784065246618C31.44771,1.9998784065246618,31,2.447593406524662,31,2.9998784065246618C31,3.552158406524662,31.44771,3.9998784065246618,32,3.9998784065246618C32,3.9998784065246618,32,1.9998784065246618,32,1.9998784065246618C32,1.9998784065246618,32,1.9998784065246618,32,1.9998784065246618ZM26.97171,5.777248406524661C27.401040000000002,5.429838406524661,27.46745,4.800158406524662,27.12003,4.370828406524662C26.77262,3.9415084065246617,26.14295,3.875098406524662,25.71362,4.222508406524662C25.71362,4.222508406524662,26.97171,5.777248406524661,26.97171,5.777248406524661C26.97171,5.777248406524661,26.97171,5.777248406524661,26.97171,5.777248406524661ZM40,11.999878406524662C40,16.41817840652466,36.4183,19.99987840652466,32,19.99987840652466C32,19.99987840652466,32,21.99987840652466,32,21.99987840652466C37.522800000000004,21.99987840652466,42,17.522678406524662,42,11.999878406524662C42,11.999878406524662,40,11.999878406524662,40,11.999878406524662C40,11.999878406524662,40,11.999878406524662,40,11.999878406524662ZM32,19.99987840652466C27.58172,19.99987840652466,24,16.41817840652466,24,11.999878406524662C24,11.999878406524662,22,11.999878406524662,22,11.999878406524662C22,17.522678406524662,26.47715,21.99987840652466,32,21.99987840652466C32,21.99987840652466,32,19.99987840652466,32,19.99987840652466C32,19.99987840652466,32,19.99987840652466,32,19.99987840652466ZM32,3.9998784065246618C36.4183,3.9998784065246618,40,7.5815984065246615,40,11.999878406524662C40,11.999878406524662,42,11.999878406524662,42,11.999878406524662C42,6.477028406524662,37.522800000000004,1.9998784065246618,32,1.9998784065246618C32,1.9998784065246618,32,3.9998784065246618,32,3.9998784065246618C32,3.9998784065246618,32,3.9998784065246618,32,3.9998784065246618ZM24,11.999878406524662C24,9.487178406524663,25.15726,7.2454984065246615,26.97171,5.777248406524661C26.97171,5.777248406524661,25.71362,4.222508406524662,25.71362,4.222508406524662C23.45007,6.054168406524662,22,8.858048406524663,22,11.999878406524662C22,11.999878406524662,24,11.999878406524662,24,11.999878406524662C24,11.999878406524662,24,11.999878406524662,24,11.999878406524662Z" fill="#14181F" fill-opacity="1"/></g><g transform="matrix(0,1,-1,0,22.499878168106083,-18.500121831893917)"><path d="M21.5,1.9998781681060827C20.947715,1.9998781681060827,20.5,2.4475931681060827,20.5,2.9998781681060827C20.5,3.5521581681060828,20.947715,3.9998781681060827,21.5,3.9998781681060827C21.5,3.9998781681060827,21.5,1.9998781681060827,21.5,1.9998781681060827C21.5,1.9998781681060827,21.5,1.9998781681060827,21.5,1.9998781681060827ZM25.5,2.9998781681060827C25.5,2.9998781681060827,26.5,2.9998781681060827,26.5,2.9998781681060827C26.5,2.4475931681060827,26.05228,1.9998781681060827,25.5,1.9998781681060827C25.5,1.9998781681060827,25.5,2.9998781681060827,25.5,2.9998781681060827C25.5,2.9998781681060827,25.5,2.9998781681060827,25.5,2.9998781681060827ZM24.5,6.999878168106083C24.5,7.552158168106082,24.94772,7.999878168106083,25.5,7.999878168106083C26.05228,7.999878168106083,26.5,7.552158168106082,26.5,6.999878168106083C26.5,6.999878168106083,24.5,6.999878168106083,24.5,6.999878168106083C24.5,6.999878168106083,24.5,6.999878168106083,24.5,6.999878168106083ZM21.5,3.9998781681060827C21.5,3.9998781681060827,25.5,3.9998781681060827,25.5,3.9998781681060827C25.5,3.9998781681060827,25.5,1.9998781681060827,25.5,1.9998781681060827C25.5,1.9998781681060827,21.5,1.9998781681060827,21.5,1.9998781681060827C21.5,1.9998781681060827,21.5,3.9998781681060827,21.5,3.9998781681060827C21.5,3.9998781681060827,21.5,3.9998781681060827,21.5,3.9998781681060827ZM24.5,2.9998781681060827C24.5,2.9998781681060827,24.5,6.999878168106083,24.5,6.999878168106083C24.5,6.999878168106083,26.5,6.999878168106083,26.5,6.999878168106083C26.5,6.999878168106083,26.5,2.9998781681060827,26.5,2.9998781681060827C26.5,2.9998781681060827,24.5,2.9998781681060827,24.5,2.9998781681060827C24.5,2.9998781681060827,24.5,2.9998781681060827,24.5,2.9998781681060827Z" fill="#14181F" fill-opacity="1"/></g></g></svg>